# xmcd CD database file
#
# Track frame offsets:
#	150
#	7929
#	44960
#	78665
#	93795
#	109077
#	121605
#	142087
#	164332
#	191147
#	210402
#	219702
#
# Disc length: 2981 seconds
#
# Revision: 0
# Processed by: cddbd v1.5PL3 Copyright (c) Steve Scherf et al.
# Submitted via: CDex 1.51
#
DISCID=a70ba30c
DTITLE=PILLOW TALK 4 - [THE BEST OF] PILLOW TALK 4
DYEAR=1998
DGENRE=JPop
TTITLE0=ラストワルツ
TTITLE1=7月のサイケデリックナイト
TTITLE2=7月のサイケデリックナイト（ライブ録音）
TTITLE3=12月のブルース（ライブ録音）
TTITLE4=モア（ライブ録音）
TTITLE5=トークトーク
TTITLE6=雨
TTITLE7=雨{remix-02]
TTITLE8=トークトーク（ライブ録音）
TTITLE9=雨（ライブ録音）
TTITLE10=ヤングラブ[remix-01]
TTITLE11=ラストワルツ[take 8]
EXTD=YEAR: 1998
EXTT0=
EXTT1=
EXTT2=
EXTT3=
EXTT4=
EXTT5=
EXTT6=
EXTT7=
EXTT8=
EXTT9=
EXTT10=
EXTT11=
PLAYORDER=
